HIERARCHY
ROOT Hips
{
  OFFSET 5.72205e-005 65.662 3.42586
  CHANNELS 6 Xposition Yposition Zposition Zrotation Xrotation Yrotation
  JOINT Chest
  {
    OFFSET 0 8.7983 -4.7612
    CHANNELS 3 Zrotation Xrotation Yrotation
    JOINT Chest2
    {
      OFFSET 0 8.0291 0.4195
      CHANNELS 3 Zrotation Xrotation Yrotation
      JOINT Chest3
      {
        OFFSET 0 9.9351 -2.2114
        CHANNELS 3 Zrotation Xrotation Yrotation
        JOINT Neck
        {
          OFFSET 0 22.3885 -0.4656
          CHANNELS 3 Zrotation Xrotation Yrotation
          JOINT Head
          {
            OFFSET -0.0001 12.643 3.4389
            CHANNELS 3 Zrotation Xrotation Yrotation
            End Site
            {
              OFFSET 0.0001 17.6655 0.5274
            }
          }
        }
        JOINT LeftCollar
        {
          OFFSET 2.2603 21.606 7.4023
          CHANNELS 3 Zrotation Xrotation Yrotation
          JOINT LeftShoulder
          {
            OFFSET 13.5163 -1.1332 -5.0146
            CHANNELS 3 Zrotation Xrotation Yrotation
            JOINT LeftElbow
            {
              OFFSET -0.0995 -28.05 -0.2431
              CHANNELS 3 Zrotation Xrotation Yrotation
              JOINT LeftWrist
              {
                OFFSET 0.0679 -23.3996 -0.1402
                CHANNELS 3 Zrotation Xrotation Yrotation
                JOINT LeftFinger1
                {
                  OFFSET 0.7932 -9.069 2.5189
                  CHANNELS 3 Zrotation Xrotation Yrotation
                  JOINT LeftFinger11
                  {
                    OFFSET -0.8272 -3.3923 0.5977
                    CHANNELS 3 Zrotation Xrotation Yrotation
                    JOINT LeftFinger12
                    {
                      OFFSET -0.5649 -2.3158 0.4082
                      CHANNELS 3 Zrotation Xrotation Yrotation
                      End Site
                      {
                        OFFSET -0.4919 -1.6479 0.2673
                      }
                    }
                  }
                }
                JOINT LeftFinger2
                {
                  OFFSET 0.9159 -9.2044 0.2193
                  CHANNELS 3 Zrotation Xrotation Yrotation
                  JOINT LeftFinger21
                  {
                    OFFSET 0.0117 -4.1944 -0.0248
                    CHANNELS 3 Zrotation Xrotation Yrotation
                    JOINT LeftFinger22
                    {
                      OFFSET 0.0071 -2.3249 -0.0142
                      CHANNELS 3 Zrotation Xrotation Yrotation
                      End Site
                      {
                        OFFSET -0.1475 -2.0882 0.0028
                      }
                    }
                  }
                }
                JOINT LeftFinger3
                {
                  OFFSET 0.6113 -8.7231 -2.0637
                  CHANNELS 3 Zrotation Xrotation Yrotation
                  JOINT LeftFinger31
                  {
                    OFFSET -0.1927 -3.8059 -0.2383
                    CHANNELS 3 Zrotation Xrotation Yrotation
                    JOINT LeftFinger32
                    {
                      OFFSET -0.1091 -2.1688 -0.1362
                      CHANNELS 3 Zrotation Xrotation Yrotation
                      End Site
                      {
                        OFFSET -0.2358 -1.9176 -0.0906
                      }
                    }
                  }
                }
                JOINT LeftFinger4
                {
                  OFFSET -0.6151 -8.0947 -3.5641
                  CHANNELS 3 Zrotation Xrotation Yrotation
                  JOINT LeftFinger41
                  {
                    OFFSET -0.4882 -2.341 -0.6462
                    CHANNELS 3 Zrotation Xrotation Yrotation
                    JOINT LeftFinger42
                    {
                      OFFSET -0.3575 -1.7167 -0.4742
                      CHANNELS 3 Zrotation Xrotation Yrotation
                      End Site
                      {
                        OFFSET -0.4187 -1.5237 -0.3496
                      }
                    }
                  }
                }
                JOINT LeftFinger0
                {
                  OFFSET -1.42 -1.8761 1.4223
                  CHANNELS 3 Zrotation Xrotation Yrotation
                  JOINT LeftFinger01
                  {
                    OFFSET -1.1471 -3.4929 2.6334
                    CHANNELS 3 Zrotation Xrotation Yrotation
                    JOINT LeftFinger02
                    {
                      OFFSET -0.823 -2.3 1.6571
                      CHANNELS 3 Zrotation Xrotation Yrotation
                      End Site
                      {
                        OFFSET -0.5822 -1.6914 1.1582
                      }
                    }
                  }
                }
              }
            }
          }
        }
        JOINT RightCollar
        {
          OFFSET -2.2603 21.606 7.4023
          CHANNELS 3 Zrotation Xrotation Yrotation
          JOINT RightShoulder
          {
            OFFSET -13.5187 -1.1334 -5.0155
            CHANNELS 3 Zrotation Xrotation Yrotation
            JOINT RightElbow
            {
              OFFSET 0.0994 -28.0499 -0.2431
              CHANNELS 3 Zrotation Xrotation Yrotation
              JOINT RightWrist
              {
                OFFSET -0.0679 -23.3996 -0.1402
                CHANNELS 3 Zrotation Xrotation Yrotation
                JOINT RightFinger1
                {
                  OFFSET -0.7932 -9.0691 2.5189
                  CHANNELS 3 Zrotation Xrotation Yrotation
                  JOINT RightFinger11
                  {
                    OFFSET 0.8272 -3.3923 0.5977
                    CHANNELS 3 Zrotation Xrotation Yrotation
                    JOINT RightFinger12
                    {
                      OFFSET 0.565 -2.3158 0.4082
                      CHANNELS 3 Zrotation Xrotation Yrotation
                      End Site
                      {
                        OFFSET 0.4919 -1.6479 0.2673
                      }
                    }
                  }
                }
                JOINT RightFinger2
                {
                  OFFSET -0.916 -9.2044 0.2193
                  CHANNELS 3 Zrotation Xrotation Yrotation
                  JOINT RightFinger21
                  {
                    OFFSET -0.0117 -4.1944 -0.0248
                    CHANNELS 3 Zrotation Xrotation Yrotation
                    JOINT RightFinger22
                    {
                      OFFSET -0.0071 -2.3249 -0.0142
                      CHANNELS 3 Zrotation Xrotation Yrotation
                      End Site
                      {
                        OFFSET 0.1475 -2.0882 0.0028
                      }
                    }
                  }
                }
                JOINT RightFinger3
                {
                  OFFSET -0.6113 -8.7231 -2.0637
                  CHANNELS 3 Zrotation Xrotation Yrotation
                  JOINT RightFinger31
                  {
                    OFFSET 0.1927 -3.8059 -0.2383
                    CHANNELS 3 Zrotation Xrotation Yrotation
                    JOINT RightFinger32
                    {
                      OFFSET 0.1091 -2.1688 -0.1362
                      CHANNELS 3 Zrotation Xrotation Yrotation
                      End Site
                      {
                        OFFSET 0.2358 -1.9176 -0.0906
                      }
                    }
                  }
                }
                JOINT RightFinger4
                {
                  OFFSET 0.6151 -8.0947 -3.564
                  CHANNELS 3 Zrotation Xrotation Yrotation
                  JOINT RightFinger41
                  {
                    OFFSET 0.4882 -2.341 -0.6462
                    CHANNELS 3 Zrotation Xrotation Yrotation
                    JOINT RightFinger42
                    {
                      OFFSET 0.3574 -1.7166 -0.4742
                      CHANNELS 3 Zrotation Xrotation Yrotation
                      End Site
                      {
                        OFFSET 0.4187 -1.5237 -0.3496
                      }
                    }
                  }
                }
                JOINT RightFinger0
                {
                  OFFSET 1.4199 -1.8761 1.4221
                  CHANNELS 3 Zrotation Xrotation Yrotation
                  JOINT RightFinger01
                  {
                    OFFSET 1.1472 -3.4929 2.6336
                    CHANNELS 3 Zrotation Xrotation Yrotation
                    JOINT RightFinger02
                    {
                      OFFSET 0.8229 -2.3 1.6571
                      CHANNELS 3 Zrotation Xrotation Yrotation
                      End Site
                      {
                        OFFSET 0.5822 -1.6914 1.1582
                      }
                    }
                  }
                }
              }
            }
          }
        }
      }
    }
  }
  JOINT RightHip
  {
    OFFSET -9.412 3.9771 -0.7758
    CHANNELS 3 Zrotation Xrotation Yrotation
    JOINT RightKnee
    {
      OFFSET -0.7531 -40.938 0
      CHANNELS 3 Zrotation Xrotation Yrotation
      JOINT RightAnkle
      {
        OFFSET 0 -40.1986 0
        CHANNELS 3 Zrotation Xrotation Yrotation
        JOINT RightToe
        {
          OFFSET 0 -4.4182 9.239
          CHANNELS 3 Zrotation Xrotation Yrotation
          End Site
          {
            OFFSET 0 0 6.1981
          }
        }
      }
    }
  }
  JOINT LeftHip
  {
    OFFSET 9.4119 3.9773 -0.7758
    CHANNELS 3 Zrotation Xrotation Yrotation
    JOINT LeftKnee
    {
      OFFSET 0.7532 -40.9383 0
      CHANNELS 3 Zrotation Xrotation Yrotation
      JOINT LeftAnkle
      {
        OFFSET 0 -40.1986 0
        CHANNELS 3 Zrotation Xrotation Yrotation
        JOINT LeftToe
        {
          OFFSET 0 -4.4182 9.239
          CHANNELS 3 Zrotation Xrotation Yrotation
          End Site
          {
            OFFSET 0 0 6.1981
          }
        }
      }
    }
  }
}
MOTION
Frames:	6
Frame Time:	0.0333333
-7.81221 -3.18034 -37.7705 -89.9975 76.1253 -0.00510558 3.1058 2.84858 -1.10985 6.27775 5.63215 -2.37713 6.27775 5.63217 -2.37715 13.0152 3.56873 27.3978 10.6981 -26.696 -3.1277 69.8125 20.8282 -63.1953 115.977 -30.1616 25.7408 -15.6495 -45.9849 31.0791 39.7773 -49.119 85.0855 9.93923e-016 0 -1.19271e-015 2.38542e-015 0 -0 1.98785e-016 6.36111e-015 -1.19271e-015 9.93923e-016 0 -1.19271e-015 -0.0127734 0.00231951 8.77759e-005 -3.97569e-016 3.18055e-015 -7.95139e-016 9.93923e-016 0 -1.19271e-015 -0.0160482 0.0029995 0.000857548 -9.93923e-016 0 7.95139e-016 9.93923e-016 0 -1.19271e-015 -0.0125147 0.00310919 0.00280995 -5.96354e-016 -3.18055e-015 7.95139e-016 9.93923e-016 0 -1.19271e-015 2.38542e-015 0 -0 1.98785e-016 6.36111e-015 -1.19271e-015 7.56322 -20.5615 34.5308 -10.6086 1.79804 -21.9154 -14.2375 -62.9867 -73.9086 84.4201 73.655 -16.9631 9.93923e-016 -1.19271e-015 3.18055e-015 1.10348e-031 -1.98785e-015 3.18055e-015 1.98785e-016 -1.59028e-015 3.18055e-015 9.93923e-016 -1.19271e-015 3.18055e-015 0.0129248 0.00230958 -9.0938e-005 -2.18663e-015 -7.95139e-016 9.54166e-015 9.93923e-016 -1.19271e-015 3.18055e-015 0.0163776 0.00304198 -0.000877134 -1.39149e-015 0 -3.18055e-015 9.93923e-016 -1.19271e-015 3.18055e-015 0.014549 0.00367105 -0.00325275 -3.40297e-006 -3.88739e-007 -1.1398e-007 9.93923e-016 -1.19271e-015 3.18055e-015 1.10348e-031 -1.98785e-015 3.18055e-015 1.98785e-016 -1.59028e-015 3.18055e-015 -2.12419 -11.9358 -0.699346 46.1222 52.9762 -41.7896 -5.08144 30.8766 1.29785 1.60069e-006 -5.28993e-006 -3.2209e-006 -1.49025 -23.9441 -1.36202 -4.61187 12.8569 2.73606 5.82314 17.6086 1.5031 4.96962e-017 0 6.27414e-016 
-7.66743 -3.18002 -37.8064 -89.9972 76.5436 -0.00534928 3.10254 2.67995 -1.10734 6.26647 5.29539 -2.3622 6.26646 5.29541 -2.3622 13.0997 3.57984 27.4633 10.7237 -26.7735 -2.93601 69.9961 20.9694 -63.4379 116.045 -30.2655 25.7766 -15.8055 -46.303 30.9485 40.0257 -48.9195 85.0607 -1.59028e-015 0 -0 -2.78299e-015 0 -3.97569e-016 -1.39149e-015 -3.18055e-015 -0 -1.59028e-015 0 -0 -0.0128175 0.00231946 8.78688e-005 -1.98785e-016 0 -3.97569e-016 -1.59028e-015 0 -0 -0.0160549 0.00299197 0.000859502 2.78299e-015 -1.59028e-014 -1.19271e-015 -1.59028e-015 0 -0 -0.0125238 0.00309922 0.00281317 -1.39149e-015 0 -3.97569e-016 -1.59028e-015 0 -0 -2.78299e-015 0 -3.97569e-016 -1.39149e-015 -3.18055e-015 -0 7.5378 -20.1618 34.2489 -10.4408 1.85846 -21.9085 -14.2971 -63.2107 -73.9381 84.8241 73.8192 -17.3547 3.18746e-007 -1.95612e-006 1.56667e-006 3.97569e-016 -3.97569e-016 -6.36111e-015 -2.20695e-032 -3.97569e-016 -3.18055e-015 3.18746e-007 -1.95612e-006 1.56667e-006 0.0129572 0.00231822 -9.25836e-005 2.18663e-015 -1.19271e-015 -0 3.18746e-007 -1.95612e-006 1.56667e-006 0.0162897 0.00302774 -0.000875043 7.95139e-016 0 3.18055e-015 3.18746e-007 -1.95612e-006 1.56667e-006 0.0146292 0.00369075 -0.00327332 0 0 -0 3.18746e-007 -1.95612e-006 1.56667e-006 3.97569e-016 -3.97569e-016 -6.36111e-015 -2.20695e-032 -3.97569e-016 -3.18055e-015 -2.3367 -12.3966 -1.09717 46.1352 52.9818 -41.8121 -5.49457 30.9477 1.66157 -5.84448e-007 3.22021e-006 -1.54518e-006 -1.46851 -24.273 -1.34577 -4.64094 12.5232 2.74336 5.85922 17.9122 1.43976 2.11607e-006 1.60159e-005 -1.03228e-005 
-7.52236 -3.17962 -37.842 -89.9969 76.9619 -0.00560104 3.09901 2.51148 -1.10473 6.25474 4.95893 -2.34718 6.25477 4.95895 -2.34719 13.1841 3.59105 27.5289 10.7496 -26.8508 -2.74422 70.1806 21.1099 -63.6812 116.114 -30.3693 25.8124 -15.9634 -46.6209 30.816 40.2733 -48.7201 85.0346 -1.59028e-015 -3.18055e-015 -3.97569e-016 -3.15886e-007 1.00868e-006 -1.32899e-006 7.22485e-007 -4.03875e-008 -1.54537e-006 -1.59028e-015 -3.18055e-015 -3.97569e-016 -0.0128195 0.00232385 8.25268e-005 3.38842e-007 -4.06512e-008 -1.72692e-006 -1.59028e-015 -3.18055e-015 -3.97569e-016 -0.0160571 0.002999 0.000854482 3.38864e-007 -4.06369e-008 -1.72692e-006 -1.59028e-015 -3.18055e-015 -3.97569e-016 -0.0126206 0.00312944 0.00282454 3.38866e-007 -4.06666e-008 -1.72692e-006 -1.59028e-015 -3.18055e-015 -3.97569e-016 -3.15886e-007 1.00868e-006 -1.32899e-006 7.22485e-007 -4.03875e-008 -1.54537e-006 7.51453 -19.7621 33.968 -10.273 1.91885 -21.9018 -14.3575 -63.4347 -73.9684 85.2363 73.9826 -17.7547 3.97569e-016 3.97569e-016 3.18055e-015 -7.95139e-016 0 -0 3.97569e-016 1.59028e-015 3.18055e-015 3.97569e-016 3.97569e-016 3.18055e-015 0.0129653 0.00231751 -8.58364e-005 -5.96354e-016 -3.97569e-016 3.18055e-015 3.97569e-016 3.97569e-016 3.18055e-015 0.0163611 0.00303916 -0.000877888 -5.96354e-016 7.95139e-016 -3.18055e-015 3.97569e-016 3.97569e-016 3.18055e-015 0.0145294 0.00366668 -0.00324438 -1.78906e-015 1.98785e-015 3.18055e-015 3.97569e-016 3.97569e-016 3.18055e-015 -7.95139e-016 0 -0 3.97569e-016 1.59028e-015 3.18055e-015 -2.553 -12.8571 -1.49756 46.1492 52.9883 -41.836 -5.90853 31.0167 2.02613 -1.8341e-006 8.10096e-007 4.46784e-006 -1.44648 -24.6019 -1.3293 -4.66997 12.1892 2.75048 5.89573 18.2158 1.37609 3.39217e-006 8.41197e-007 -5.47299e-007 
-7.37702 -3.17915 -37.8772 -89.9967 77.3802 -0.00583039 3.09522 2.34317 -1.10203 6.24264 4.62286 -2.33206 6.24264 4.62288 -2.33207 13.2685 3.60236 27.5944 10.7758 -26.928 -2.55235 70.3659 21.2496 -63.9252 116.182 -30.4732 25.8486 -16.1234 -46.9385 30.6813 40.52 -48.5207 85.0073 6.99512e-007 -4.22372e-008 -2.49972e-006 1.12928e-007 1.87219e-009 7.61068e-007 2.70813e-007 4.27703e-006 -5.79551e-007 6.99512e-007 -4.22372e-008 -2.49972e-006 -0.0128591 0.00233597 8.39865e-005 -9.2543e-007 3.31202e-006 9.77547e-007 6.99512e-007 -4.22372e-008 -2.49972e-006 -0.0160397 0.00300328 0.000856737 -2.03177e-007 -3.82132e-008 -5.67895e-007 6.99512e-007 -4.22372e-008 -2.49972e-006 -0.0126095 0.0031338 0.00282552 1.80567e-007 -7.94776e-010 -3.86358e-007 6.99512e-007 -4.22372e-008 -2.49972e-006 1.12928e-007 1.87219e-009 7.61068e-007 2.70813e-007 4.27703e-006 -5.79551e-007 7.49339 -19.3623 33.688 -10.1053 1.97928 -21.8953 -14.4184 -63.6587 -73.9994 85.6567 74.1451 -18.1628 -7.95139e-016 3.97569e-016 3.18055e-015 -1.98785e-015 3.97569e-016 3.18055e-015 -1.59028e-015 7.95139e-016 -0 -7.95139e-016 3.97569e-016 3.18055e-015 0.0129346 0.00231271 -8.29348e-005 -3.18925e-007 3.23732e-007 -1.5675e-006 -7.95139e-016 3.97569e-016 3.18055e-015 0.0163127 0.00303248 -0.000871456 -1.98785e-016 3.97569e-016 6.36111e-015 -7.95139e-016 3.97569e-016 3.18055e-015 0.0146124 0.00368811 -0.00326612 0 0 -3.18055e-015 -7.95139e-016 3.97569e-016 3.18055e-015 -1.98785e-015 3.97569e-016 3.18055e-015 -1.59028e-015 7.95139e-016 -0 -2.77308 -13.3162 -1.90066 46.163 52.9947 -41.8597 -6.32315 31.0837 2.39145 -2.41704e-006 6.95183e-007 2.92631e-006 -1.4241 -24.9305 -1.31258 -4.69891 11.8549 2.75736 5.93255 18.5196 1.31213 -4.2263e-006 1.22226e-005 -6.10331e-006 
-7.2314 -3.17862 -37.9121 -89.9964 77.7984 -0.00609974 3.09113 2.1751 -1.09926 6.23002 4.28725 -2.31683 6.23004 4.28726 -2.31683 13.3531 3.61388 27.6597 10.8023 -27.0051 -2.36037 70.5522 21.3886 -64.17 116.251 -30.5769 25.8848 -16.2854 -47.2558 30.5446 40.7659 -48.3215 84.9788 -4.28269e-007 -4.23746e-006 1.92024e-006 1.19271e-015 3.18055e-015 -3.97569e-016 1.59028e-015 3.18055e-015 -3.97569e-016 -4.28269e-007 -4.23746e-006 1.92024e-006 -0.0128139 0.00232281 8.41555e-005 1.59028e-015 6.36111e-015 -3.97569e-016 -4.28269e-007 -4.23746e-006 1.92024e-006 -0.0160826 0.003002 0.000857418 1.98785e-016 3.18055e-015 -3.97569e-016 -4.28269e-007 -4.23746e-006 1.92024e-006 -0.0125936 0.00312984 0.00282559 6.03401e-006 -2.16183e-006 1.97594e-006 -4.28269e-007 -4.23746e-006 1.92024e-006 1.19271e-015 3.18055e-015 -3.97569e-016 1.59028e-015 3.18055e-015 -3.97569e-016 7.47453 -18.9623 33.4088 -9.93749 2.03974 -21.889 -14.4803 -63.8826 -74.0313 86.0855 74.3068 -18.5793 -3.97569e-016 -3.97569e-016 -3.18055e-015 -3.97569e-016 0 -3.18055e-015 -1.98785e-016 0 -3.18055e-015 -3.97569e-016 -3.97569e-016 -3.18055e-015 0.0129747 0.00232121 -8.69169e-005 -7.95139e-016 -3.97569e-016 3.18055e-015 -3.97569e-016 -3.97569e-016 -3.18055e-015 0.0163438 0.00303746 -0.000873771 1.98785e-016 -1.19271e-015 -0 -3.97569e-016 -3.97569e-016 -3.18055e-015 0.0145709 0.00367372 -0.00326233 -1.98785e-016 -7.95139e-016 -3.18055e-015 -3.97569e-016 -3.97569e-016 -3.18055e-015 -3.97569e-016 0 -3.18055e-015 -1.98785e-016 0 -3.18055e-015 -2.99704 -13.7736 -2.30646 46.1765 53.001 -41.8832 -6.73847 31.1485 2.75752 -7.12295e-006 4.87947e-006 2.30756e-006 -1.40149 -25.2592 -1.29563 -4.7277 11.5207 2.76408 5.96984 18.8234 1.24778 4.96962e-017 0 -5.03174e-016 
-7.08552 -3.17802 -37.9467 -89.9961 78.2165 -0.00640494 3.08684 2.00737 -1.09645 6.21711 3.95235 -2.30158 6.21713 3.95235 -2.30158 13.4373 3.62531 27.7252 10.8292 -27.0821 -2.1683 70.7389 21.5268 -64.4154 116.32 -30.6807 25.9213 -16.4495 -47.5728 30.4057 41.0109 -48.1224 84.9492 3.60705e-007 -1.25896e-009 -7.72865e-007 -1.59447e-007 -4.31237e-008 -2.66952e-006 -1.06121e-006 3.22611e-006 -7.37362e-007 3.60705e-007 -1.25896e-009 -7.72865e-007 -0.0127777 0.00232224 8.19537e-005 -9.24916e-007 3.26771e-006 9.77879e-007 3.60705e-007 -1.25896e-009 -7.72865e-007 -0.0160166 0.00298594 0.000852976 6.54366e-007 4.27798e-006 -3.98234e-007 3.60705e-007 -1.25896e-009 -7.72865e-007 -0.0125624 0.00311633 0.00281772 3.60756e-007 -1.27711e-009 -7.72848e-007 3.60705e-007 -1.25896e-009 -7.72865e-007 -1.59447e-007 -4.31237e-008 -2.66952e-006 -1.06121e-006 3.22611e-006 -7.37362e-007 7.45757 -18.5625 33.1306 -9.76968 2.10027 -21.8828 -14.5429 -64.1066 -74.0639 86.5231 74.4677 -19.0046 1.06481e-007 4.89196e-008 -1.55414e-006 -1.06481e-007 -4.89196e-008 1.55414e-006 3.97569e-016 -3.97569e-016 3.18055e-015 1.06481e-007 4.89196e-008 -1.55414e-006 0.012918 0.00230887 -8.52749e-005 -4.25356e-007 1.67469e-006 -1.41691e-008 1.06481e-007 4.89196e-008 -1.55414e-006 0.0163642 0.00303959 -0.000870088 -1.98785e-016 3.97569e-016 -3.18055e-015 1.06481e-007 4.89196e-008 -1.55414e-006 0.0145735 0.00367556 -0.00326224 -3.18954e-007 1.48976e-006 -1.56827e-006 1.06481e-007 4.89196e-008 -1.55414e-006 -1.06481e-007 -4.89196e-008 1.55414e-006 3.97569e-016 -3.97569e-016 3.18055e-015 -3.2249 -14.2286 -2.71498 46.1892 53.0067 -41.9057 -7.15441 31.2112 3.12424 3.97569e-015 -3.18055e-015 1.59028e-015 -1.37862 -25.5876 -1.27847 -4.75639 11.1861 2.7706 6.0075 19.1273 1.18312 -2.11667e-005 2.56911e-006 -4.07831e-006 
